<svg xmlns="http://www.w3.org/2000/svg" viewBox="0 0 88 62" fill="none" aria-hidden="true">
  <defs>
    <linearGradient id="tankSplit" x1="0" y1="0" x2="1" y2="0">
      <stop offset="0%" stop-color="#2d7d44"/>
      <stop offset="48%" stop-color="#2d7d44"/>
      <stop offset="48%" stop-color="#4ec06a"/>
      <stop offset="100%" stop-color="#4ec06a"/>
    </linearGradient>
    <linearGradient id="tankSplitSoft" x1="0" y1="0" x2="1" y2="0">
      <stop offset="0%" stop-color="#287040"/>
      <stop offset="48%" stop-color="#287040"/>
      <stop offset="48%" stop-color="#45b35f"/>
      <stop offset="100%" stop-color="#45b35f"/>
    </linearGradient>
  </defs>
  <g stroke="#1a1f1c" stroke-width="2.25" stroke-linecap="round" stroke-linejoin="round">
    <path
      fill="#1f3d28"
      d="M 10 45.5 L 74 45.5 A 6 6 0 0 1 80 51.5 L 80 52.5 A 6 6 0 0 1 74 58.5 L 10 58.5 A 6 6 0 0 1 4 52.5 L 4 51.5 A 6 6 0 0 1 10 45.5 Z"
    />
    <circle cx="16" cy="52" r="3.25" fill="#c8d2c8" stroke-width="2"/>
    <circle cx="30" cy="52" r="5" fill="#c8d2c8" stroke-width="2"/>
    <circle cx="44" cy="52" r="5" fill="#c8d2c8" stroke-width="2"/>
    <circle cx="58" cy="52" r="5" fill="#c8d2c8" stroke-width="2"/>
    <circle cx="72" cy="52" r="3.25" fill="#c8d2c8" stroke-width="2"/>
    <path
      fill="url(#tankSplit)"
      d="M 14 43.5 L 18 31.5 L 70 31.5 L 74 43.5 Z"
    />
    <path
      fill="url(#tankSplitSoft)"
      d="M 26 31.5 L 26 28 Q 44 17 62 28 L 62 31.5 Z"
    />
    <rect x="38" y="17.5" width="12" height="5" rx="1.5" fill="url(#tankSplit)" stroke-width="2.25"/>
    <g transform="translate(52 26) rotate(-26)">
      <rect x="0" y="-3.25" width="32" height="6.5" rx="1.2" fill="url(#tankSplit)" stroke-width="2.25"/>
      <rect x="30" y="-4.5" width="7" height="9" rx="1.5" fill="#2a2f2c" stroke-width="2.25"/>
    </g>
  </g>
</svg>
